<?xml version="1.0" standalone="no"?>
<!DOCTYPE svg PUBLIC "-//W3C//DTD SVG 20010904//EN"
 "http://www.w3.org/TR/2001/REC-SVG-20010904/DTD/svg10.dtd">
<svg version="1.0" xmlns="http://www.w3.org/2000/svg"
 width="85.000000pt" height="85.000000pt" viewBox="0 0 85.000000 85.000000"
 preserveAspectRatio="xMidYMid meet">

<g transform="translate(0.000000,85.000000) scale(0.100000,-0.100000)"
fill="#000000" stroke="none">
<path d="M298 821 c-31 -10 -79 -34 -105 -53 -26 -20 -64 -38 -84 -42 -77 -14
-113 -69 -84 -130 13 -28 14 -42 6 -73 -23 -80 -13 -165 31 -283 15 -42 86
-121 143 -159 92 -62 210 -84 313 -57 88 22 137 50 199 112 30 30 60 54 67 54
23 0 38 28 34 61 -3 17 1 57 9 88 16 69 9 266 -11 296 -23 34 -56 65 -69 65
-7 0 -30 18 -51 39 -61 62 -143 94 -251 98 -68 2 -104 -2 -147 -16z m272 -30
c52 -20 148 -90 124 -91 -7 0 -35 16 -64 35 -121 81 -271 85 -391 9 -43 -27
-49 -28 -49 -14 0 15 80 58 140 75 70 19 167 13 240 -14z m-497 -268 c-5 -16
-7 -73 -6 -128 1 -78 -1 -94 -9 -75 -13 30 -16 163 -5 203 4 15 12 27 17 27 6
0 7 -11 3 -27z m737 -135 c0 -31 -3 -39 -11 -31 -7 7 -8 24 -4 42 9 43 15 39
15 -11z m-652 -40 c14 -14 16 -54 3 -63 -6 -3 -6 -18 0 -38 11 -40 12 -37 -5
-37 -7 0 -18 15 -24 33 l-10 32 -1 -32 c-1 -25 -5 -33 -20 -33 -17 0 -19 8
-18 75 l1 75 31 0 c17 0 36 -5 43 -12z m92 -3 c0 -9 -6 -12 -15 -9 -10 4 -15
0 -15 -16 0 -11 5 -18 10 -15 6 3 10 -1 10 -9 0 -9 -4 -16 -10 -16 -5 0 -10
-10 -10 -21 0 -17 5 -20 21 -16 15 4 19 1 17 -11 -2 -11 -15 -18 -38 -20 l-35
-3 0 76 0 75 33 0 c21 0 32 -5 32 -15z m76 -22 l7 -38 12 35 c7 21 19 36 31
38 17 2 19 -4 19 -73 0 -67 -2 -75 -19 -75 -16 0 -18 5 -13 45 8 57 1 58 -14
3 l-12 -43 -13 40 -12 40 -1 -42 c-1 -30 -5 -43 -15 -43 -11 0 -15 18 -18 75
-3 72 -2 75 19 75 18 0 24 -8 29 -37z m164 23 c0 -9 -7 -12 -20 -9 -15 4 -20
0 -20 -16 0 -14 5 -19 15 -15 9 4 15 0 15 -10 0 -9 -7 -16 -15 -16 -9 0 -15
-9 -15 -21 0 -17 5 -20 21 -16 15 4 19 1 17 -11 -2 -11 -15 -18 -38 -20 l-35
-3 0 76 0 75 38 0 c25 0 37 -4 37 -14z m88 2 c14 -14 16 -54 3 -63 -6 -3 -6
-18 0 -38 11 -40 12 -37 -6 -37 -8 0 -15 8 -15 18 0 9 -5 24 -11 32 -8 12 -9
7 -6 -17 3 -28 0 -33 -17 -33 -19 0 -21 6 -21 75 l0 75 31 0 c16 0 35 -5 42
-12z m114 -63 c14 -72 14 -75 -3 -75 -12 0 -19 7 -19 20 0 11 -5 20 -11 20 -6
0 -13 -9 -16 -20 -3 -11 -12 -20 -19 -20 -17 0 -17 -1 0 77 7 34 11 65 8 68
-3 3 6 5 20 5 23 0 26 -5 40 -75z m96 52 c3 -16 1 -17 -18 -7 -36 19 -36 2 -1
-34 24 -25 31 -40 27 -54 -13 -39 -77 -37 -75 2 0 11 3 15 6 9 6 -16 33 -17
33 -1 0 7 -12 24 -26 39 -22 23 -24 30 -14 49 14 27 63 25 68 -3z m-586 -197
c29 -21 78 -49 110 -61 113 -42 267 -11 355 71 18 17 38 30 44 30 24 0 -54
-69 -115 -102 -58 -31 -66 -33 -166 -33 -95 0 -110 3 -161 28 -59 30 -153 106
-132 107 7 0 36 -18 65 -40z"/>
<path d="M120 333 c0 -6 -3 -18 -6 -27 -3 -9 -1 -16 5 -16 17 0 25 30 12 43
-8 8 -11 8 -11 0z"/>
<path d="M540 315 c0 -14 4 -25 9 -25 12 0 19 21 13 38 -8 21 -22 13 -22 -13z"/>
<path d="M650 293 c0 -13 5 -23 10 -23 13 0 13 11 0 30 -8 12 -10 11 -10 -7z"/>
</g>
</svg>
