<?xml version="1.0" standalone="no"?>
<!DOCTYPE svg PUBLIC "-//W3C//DTD SVG 20010904//EN"
 "http://www.w3.org/TR/2001/REC-SVG-20010904/DTD/svg10.dtd">
<svg version="1.0" xmlns="http://www.w3.org/2000/svg"
 width="640.000000pt" height="640.000000pt" viewBox="0 0 640.000000 640.000000"
 preserveAspectRatio="xMidYMid meet">

<g transform="translate(0.000000,640.000000) scale(0.100000,-0.100000)"
fill="#000000" stroke="none">
<path d="M3025 6343 c-672 -44 -1377 -344 -1860 -792 l-40 -37 -145 -11 c-437
-35 -785 -275 -859 -593 -50 -213 -4 -397 141 -556 32 -35 58 -72 58 -82 0
-10 -16 -65 -35 -122 -72 -213 -108 -389 -130 -635 -52 -572 49 -1131 300
-1652 63 -133 64 -134 49 -169 -26 -61 -12 -89 95 -194 53 -52 119 -124 146
-160 135 -178 352 -404 520 -541 441 -360 962 -594 1516 -680 192 -30 552 -37
749 -14 490 56 930 211 1355 479 252 158 554 428 768 687 l96 116 84 5 c101 7
177 42 251 116 70 70 99 137 104 242 5 105 -11 168 -66 259 l-39 64 35 91 c72
191 123 400 164 666 30 197 33 613 4 790 -16 105 -17 132 -6 305 10 150 10
219 1 325 -32 357 -102 524 -324 777 -141 161 -211 210 -356 253 -53 16 -80
30 -95 48 -78 103 -327 327 -511 458 -167 120 -443 270 -638 348 -178 70 -406
134 -607 170 -196 36 -517 53 -725 39z m385 -194 c694 -44 1296 -307 1820
-797 l75 -70 -30 -6 c-16 -4 -56 -14 -87 -23 l-57 -16 -106 96 c-128 114 -258
209 -422 306 -109 64 -151 86 -298 151 -194 86 -434 153 -689 192 -200 30
-560 30 -762 0 -463 -69 -878 -234 -1242 -493 l-83 -60 -72 23 c-40 12 -76 25
-80 29 -10 8 183 155 308 234 128 80 408 216 560 270 251 90 528 148 795 164
197 12 190 12 370 0z m-2822 -2033 c12 -4 22 -12 22 -17 0 -5 -13 -53 -29
-107 -38 -129 -68 -278 -86 -437 -19 -164 -19 -500 0 -659 7 -65 11 -139 8
-165 -4 -35 0 -58 16 -93 19 -43 21 -64 21 -270 -1 -252 3 -250 -68 -43 -92
273 -131 500 -139 825 -6 237 5 379 48 630 20 118 68 324 88 372 l10 28 43
-29 c24 -16 53 -32 66 -35z m5527 -1131 c-14 -146 -42 -345 -48 -352 -2 -1
-31 26 -65 60 l-62 62 10 60 c6 33 17 127 25 208 l13 148 40 43 c22 24 53 63
68 86 l29 44 3 -99 c1 -55 -4 -171 -13 -260z m-5027 -295 c73 -26 135 -81 172
-155 21 -43 25 -63 25 -145 -1 -81 -4 -103 -26 -150 -26 -56 -73 -109 -121
-138 l-27 -16 25 -42 c14 -23 40 -103 58 -177 33 -133 52 -178 89 -208 36 -30
12 -39 -102 -39 -75 0 -112 4 -118 13 -10 12 -76 253 -88 320 -8 51 -36 77
-81 77 l-36 0 4 -160 4 -161 32 -30 c18 -17 31 -36 29 -42 -2 -8 -52 -13 -154
-15 -127 -2 -152 0 -163 13 -12 14 -10 20 12 40 l26 24 7 285 c10 379 0 629
-26 674 -10 18 -19 37 -19 42 0 16 36 19 225 16 165 -3 198 -7 253 -26z m3919
20 l125 0 -7 -59 c-6 -57 16 -190 94 -556 11 -49 31 -146 46 -215 15 -69 37
-152 50 -185 14 -32 22 -61 19 -65 -10 -9 -248 -16 -267 -7 -15 7 -17 15 -12
35 14 52 17 160 5 182 -11 21 -18 22 -110 18 -54 -1 -101 -6 -104 -9 -4 -3
-10 -37 -15 -75 -7 -60 -6 -73 10 -100 17 -27 17 -33 4 -44 -24 -20 -266 -12
-280 10 -3 4 4 19 14 32 28 35 64 181 121 488 12 63 32 171 45 240 40 212 43
232 28 268 -11 26 -11 33 -1 37 33 10 55 13 82 9 16 -2 85 -4 153 -4z m807
-16 c36 -14 71 -33 78 -41 19 -24 25 -273 6 -273 -7 0 -38 28 -68 61 -59 67
-131 119 -166 119 -42 0 -76 -41 -82 -98 -4 -50 -3 -53 34 -89 22 -21 76 -66
121 -101 123 -95 216 -198 233 -255 16 -59 9 -201 -13 -243 -20 -38 -73 -95
-117 -125 -32 -22 -44 -24 -150 -23 -107 0 -120 2 -182 31 -36 17 -70 39 -76
49 -17 34 -36 181 -33 252 1 32 24 27 46 -10 31 -53 96 -118 140 -140 108 -56
202 4 181 116 -7 37 -62 98 -144 158 -101 75 -219 198 -231 243 -14 52 -13
171 2 212 21 56 82 119 148 152 83 42 178 43 273 5z m-3905 2 c12 -14 31 -182
23 -203 -7 -22 -32 -14 -75 22 -37 32 -46 35 -103 35 -35 0 -74 -4 -88 -10
-26 -9 -26 -10 -26 -130 l0 -120 55 0 c30 0 70 7 89 16 62 30 67 21 64 -123
-3 -143 -10 -154 -62 -108 -17 15 -42 25 -60 25 -17 0 -41 3 -54 6 l-23 6 3
-158 3 -159 53 -3 c73 -4 151 21 204 64 l43 37 3 -39 c5 -45 -15 -194 -28
-215 -8 -11 -57 -15 -275 -17 -231 -3 -266 -1 -271 12 -4 9 5 25 23 40 l28 24
3 449 c2 246 0 458 -3 470 -3 12 -15 31 -26 42 -13 12 -19 26 -16 35 6 14 39
16 255 16 201 0 252 -3 261 -14z m490 -71 c13 -44 45 -162 71 -263 45 -171 55
-202 63 -191 2 2 14 42 26 89 12 47 40 141 61 210 21 69 47 151 56 183 l18 57
153 0 c137 0 153 -2 153 -17 0 -9 -10 -27 -22 -41 -23 -23 -23 -30 -31 -355
-9 -410 -3 -569 24 -615 31 -54 27 -62 -39 -62 -33 0 -93 -3 -135 -6 -90 -8
-101 2 -71 64 15 31 20 79 27 300 6 166 6 275 0 295 -9 31 -10 29 -37 -58 -71
-236 -169 -531 -181 -544 -18 -19 -34 14 -78 164 -19 66 -52 174 -72 240 -20
66 -43 144 -51 173 -9 28 -20 50 -25 46 -11 -6 -11 -267 0 -460 6 -108 13
-147 26 -168 12 -18 15 -30 8 -37 -6 -6 -66 -8 -144 -7 -114 3 -134 5 -137 19
-2 9 4 24 13 33 33 33 36 77 29 516 -5 406 -7 437 -25 462 -40 57 -35 59 139
56 l157 -3 24 -80z m1239 73 c5 -7 13 -57 17 -110 9 -119 -2 -131 -65 -74 -37
33 -45 36 -104 36 -36 0 -76 -4 -90 -10 -26 -9 -26 -10 -26 -130 l0 -120 54 0
c29 0 70 7 91 16 61 25 65 19 65 -103 0 -59 -3 -118 -6 -130 -8 -30 -35 -29
-64 2 -20 21 -33 25 -82 25 l-59 0 3 -152 3 -153 50 -3 c76 -5 148 14 197 53
45 36 68 44 68 23 0 -14 -19 -161 -26 -195 -10 -51 -16 -52 -290 -52 -227 -1
-255 1 -261 16 -4 9 1 21 12 29 10 8 22 35 27 61 11 61 23 786 14 847 -4 26
-18 59 -32 75 -51 61 -51 61 235 61 195 0 261 -3 269 -12z m613 -2 c130 -40
209 -126 229 -252 11 -65 -3 -162 -30 -219 -21 -43 -83 -115 -114 -132 -19
-11 -19 -13 11 -79 18 -38 37 -97 43 -131 16 -92 39 -163 66 -202 27 -40 30
-57 12 -64 -20 -7 -212 4 -221 13 -5 4 -19 61 -33 126 -27 137 -48 213 -64
244 -9 17 -19 21 -52 18 l-40 -3 -3 -110 c-3 -160 5 -212 41 -240 23 -19 26
-25 16 -37 -10 -12 -40 -15 -150 -15 -173 -1 -198 10 -148 60 15 15 27 42 31
70 4 26 3 235 -1 466 l-9 419 -24 26 c-14 14 -21 31 -18 40 6 14 35 16 209 16
146 0 216 -4 249 -14z m-2991 -1422 c706 -710 1682 -990 2624 -753 213 53 502
168 680 270 234 135 387 251 597 456 l146 143 96 0 c58 0 97 -4 97 -10 0 -19
-365 -378 -464 -455 -406 -320 -857 -519 -1376 -606 -118 -20 -170 -23 -425
-24 -256 0 -307 3 -433 23 -326 52 -589 136 -865 276 -310 157 -524 313 -783
571 -100 99 -186 190 -193 203 l-12 22 98 0 98 0 115 -116z"/>
<path d="M860 2543 c0 -5 -2 -85 -5 -180 -3 -111 -1 -174 5 -178 14 -9 120 14
148 31 44 29 62 73 62 154 0 90 -19 129 -79 160 -39 19 -131 28 -131 13z"/>
<path d="M4943 2430 c-6 -14 -16 -56 -22 -95 -7 -38 -21 -116 -32 -173 -10
-57 -19 -109 -19 -117 0 -16 86 -30 131 -20 30 7 31 8 25 49 -9 59 -45 250
-60 321 -12 55 -14 58 -23 35z"/>
<path d="M4050 2371 c0 -131 3 -181 13 -189 15 -13 93 0 136 22 42 22 71 89
71 163 0 81 -13 112 -64 151 -37 27 -51 32 -99 32 l-57 0 0 -179z"/>
</g>
</svg>
